<?xml version="1.0" encoding="utf-8"?>
<!-- Generator: Adobe Illustrator 19.0.0, SVG Export Plug-In . SVG Version: 6.00 Build 0)  -->
<svg version="1.1" id="Capa_1" xmlns="http://www.w3.org/2000/svg" xmlns:xlink="http://www.w3.org/1999/xlink" x="0px" y="0px"
	 viewBox="-281 372 49 49" style="enable-background:new -281 372 49 49;" xml:space="preserve">
<style type="text/css">
	.st0{display:none;}
	.st1{display:inline;fill:#E2E1E0;}
	.st2{fill:#FFFFFF;}
	.st3{fill:#A0750A;}
	.st4{fill:#FBFBFC;}
	.st5{display:inline;fill:#FFFFFF;}
	.st6{display:inline;fill:#E52D27;}
	.st7{display:inline;fill:#FBFBFC;}
	.st8{display:inline;}
	.st9{opacity:0.1;fill:#FBFBFC;enable-background:new    ;}
</style>
<g id="Capa_1">
	
		<image style="overflow:visible;opacity:0.75;" width="84" height="85" xlink:href="83AF414C.png"  transform="matrix(1 0 0 1 -298.0079 359.9921)">
	</image>
	<g>
		<g>
			<g id="Capa_3_9_" class="st0">
				<rect x="-281" y="372" class="st1" width="49" height="49"/>
			</g>
			<g id="Capa_2_9_">
				<path class="st2" d="M-256.6,420.9c13.5,0,24.4-10.9,24.4-24.4c0-13.5-10.9-24.4-24.4-24.4c-13.5,0-24.4,10.9-24.4,24.4
					C-281,409.9-270.1,420.9-256.6,420.9L-256.6,420.9z"/>
				<path class="st3" d="M-256.9,417.1h0.6c11.3-0.2,20.4-9.4,20.4-20.7c0-11.4-9.3-20.7-20.7-20.7c-11.4,0-20.7,9.3-20.7,20.7
					C-277.3,407.8-268.2,417-256.9,417.1L-256.9,417.1z"/>
				<g>
					<path class="st4" d="M-244,408.9c0.7-0.5,1.4-1.1,2.1-1.8c1.6-1.6,2.8-3.4,3.8-5.3c-0.7,0.5-1.4,1.1-2,1.8
						C-241.7,405.2-243,407-244,408.9z"/>
					<path class="st4" d="M-257.7,396.6c-2.6-1.2-5.4-1.9-8.5-1.9c-3.5,0-6.7,0.9-9.6,2.4c1,4.6,3.5,8.6,7,11.4
						c1.1-2.8,2.8-5.4,5.1-7.7C-261.8,399.1-259.8,397.6-257.7,396.6z"/>
					<path class="st4" d="M-265.7,393.5c3.4,0,6.6,0.7,9.5,2.1c1.4-0.6,2.9-1.1,4.4-1.4c0.7-1.4,1.1-3,1.1-4.8
						c0-5.8-4.7-10.5-10.5-10.5c-5.8,0-10.5,4.7-10.5,10.5c0,1.6,0.4,3.2,1.1,4.6C-269,393.7-267.4,393.5-265.7,393.5z"/>
					<path class="st4" d="M-247.1,390.8c1.1,0,2-0.7,2-2.4c0-1.7-0.9-8.6-2-8.6s-2,6.9-2,8.6C-249.1,390.1-248.2,390.8-247.1,390.8z
						"/>
					<path class="st4" d="M-247.8,391.4v2.3c0,0.3,0.3,0.6,0.6,0.6s0.6-0.3,0.6-0.6v-2.3c-0.2,0.1-0.4,0.1-0.6,0.1
						S-247.6,391.5-247.8,391.4z"/>
					<path class="st4" d="M-239.8,397c-0.3-0.1-0.7-0.3-1-0.4c-6-0.3-12,1.9-16.6,6.4c-2.5,2.5-4.3,5.5-5.4,8.7
						c0.2,0.1,0.4,0.1,0.6,0.2c0,0,0,0,0,0c0.3,0.1,0.5,0.2,0.8,0.2c0.1,0,0.1,0,0.2,0c0.2,0.1,0.4,0.1,0.7,0.2c0.1,0,0.2,0,0.2,0.1
						c0.1,0,0.2,0,0.3,0.1c0.9-3,2.5-5.8,4.7-8.2C-251.2,399.7-245.6,397.3-239.8,397z"/>
					<path class="st4" d="M-237.7,398.1c-0.4-0.2-0.8-0.4-1.1-0.6c-5.4,0.5-10.6,3-14.4,7.4c-2.1,2.4-3.5,5.2-4.3,8
						c0.1,0,0.2,0,0.3,0c0.1,0,0.2,0,0.4,0c0.2,0,0.3,0,0.5,0c0.1,0,0.3,0,0.4,0c0.1,0,0.1,0,0.2,0c0.2,0,0.4,0,0.6,0
						c0.9-2.6,2.3-5.2,4.2-7.4C-247.4,401.4-242.7,398.9-237.7,398.1z"/>
					<path class="st4" d="M-248.8,406.6c-1.4,1.8-2.5,3.8-3.2,5.9c1.3-0.3,2.5-0.7,3.8-1.2c0.7-1.8,1.7-3.5,2.9-5.1
						c2.2-2.9,5.1-5.6,8.2-7.1l0.2-0.5C-241.4,399.9-245.7,402.6-248.8,406.6z"/>
					<path class="st4" d="M-242.5,396.1c-0.6-0.2-1.2-0.3-1.9-0.4c0,0-0.1,0-0.1,0c-0.2,0-0.4-0.1-0.6-0.1c0,0-0.1,0-0.1,0
						c-0.6-0.1-1.2-0.1-1.8-0.2c0,0-0.1,0-0.1,0c-0.2,0-0.4,0-0.5,0c-0.1,0-0.1,0-0.2,0c-0.2,0-0.4,0-0.5,0c0,0-0.1,0-0.1,0
						c-0.4,0-0.8,0-1.1,0.1c0,0-0.1,0-0.1,0c-0.2,0-0.3,0-0.5,0.1c-0.1,0-0.2,0-0.3,0c-0.2,0-0.3,0-0.5,0.1c-0.1,0-0.2,0-0.3,0
						c-0.3,0-0.6,0.1-0.8,0.2c-0.1,0-0.2,0-0.2,0c-0.1,0-0.3,0.1-0.4,0.1c-0.1,0-0.2,0.1-0.3,0.1c-0.1,0-0.3,0.1-0.4,0.1
						c-0.1,0-0.2,0.1-0.4,0.1c-0.1,0-0.2,0.1-0.4,0.1c-0.2,0.1-0.4,0.1-0.5,0.2c-0.1,0-0.2,0.1-0.4,0.1c-0.2,0.1-0.3,0.1-0.5,0.2
						c-0.1,0-0.2,0.1-0.3,0.1c-0.1,0.1-0.3,0.1-0.4,0.2c-0.1,0-0.2,0.1-0.3,0.1c-0.2,0.1-0.3,0.2-0.5,0.3c-0.1,0-0.1,0.1-0.2,0.1
						c-0.2,0.1-0.4,0.2-0.7,0.4c-0.1,0-0.1,0.1-0.2,0.1c-0.2,0.1-0.3,0.2-0.5,0.3c-0.1,0-0.2,0.1-0.2,0.1c-0.2,0.1-0.3,0.2-0.5,0.3
						c-0.1,0-0.1,0.1-0.2,0.1c-0.2,0.1-0.4,0.3-0.6,0.5c0,0-0.1,0.1-0.1,0.1c-0.2,0.1-0.3,0.3-0.5,0.4c-0.1,0.1-0.1,0.1-0.2,0.2
						c-0.1,0.1-0.3,0.3-0.4,0.4c-0.1,0.1-0.1,0.1-0.2,0.2c-0.2,0.2-0.4,0.4-0.6,0.6c-2.4,2.4-4.1,5.4-5,8.4c0.2,0.1,0.3,0.2,0.5,0.3
						c0.1,0.1,0.2,0.1,0.4,0.2c0,0,0.1,0.1,0.1,0.1c0.2,0.1,0.3,0.2,0.5,0.3c0,0,0,0,0,0c0.2,0.1,0.3,0.2,0.5,0.3
						c1-3.2,2.7-6.2,5.3-8.7C-255,397.5-248.6,395.5-242.5,396.1z"/>
				</g>
			</g>
			<g id="Capa_1_11_" class="st0">
				<path class="st5" d="M-256.5,421c13.5,0,24.5-11,24.5-24.5c0-13.5-11-24.5-24.5-24.5c-13.5,0-24.5,11-24.5,24.5
					C-281,410-270,421-256.5,421L-256.5,421z"/>
				<path class="st6" d="M-256.8,417.2h0.6c11.3-0.2,20.4-9.4,20.4-20.7c0-11.5-9.3-20.7-20.7-20.7c-11.5,0-20.7,9.3-20.7,20.7
					C-277.2,407.9-268.1,417.1-256.8,417.2L-256.8,417.2z"/>
				<path class="st7" d="M-259.6,401.6L-259.6,401.6c0.1-0.1,0.1-0.2,0.2-0.4c0.1-0.3,0.3-0.7,0.3-1.1c0.1-0.4,0-0.9-0.1-1.3
					c-0.2-0.7-0.5-1.5-1-2.1c-0.1-0.1-0.1-0.2-0.2-0.2l0,0c-0.2-0.2-0.4-0.4-0.6-0.5l0,0c0,0,0,0,0,0c-0.4-0.3-0.8-0.4-1.2-0.6l0,0
					c0,0,0,0,0,0c-0.1,0-0.3-0.1-0.4-0.1c0,0,0,0-0.1,0c-0.1,0-0.3,0-0.4-0.1c0,0,0,0,0,0c-0.3,0-0.6,0-0.9,0c0,0,0,0,0,0l0,0
					c-0.1,0-0.3,0-0.4,0c-0.4,0.1-0.7,0.2-1.1,0.3c-0.1,0.1-0.3,0.1-0.4,0.2l-1.2-1.5c0,0-0.1-0.1-0.1-0.1c0-0.1,0-0.1,0.1-0.2
					c0.2-0.6,0.4-1.3,0.5-1.9c0.1-0.7,0.2-1.4,0-2.2c-0.2-0.8-0.6-1.6-1.4-2.2c-0.8-0.6-1.9-0.7-2.7-0.1c-0.4,0.3-0.7,0.8-0.8,1.2
					c0,0.2-0.1,0.5,0,0.7c0,0.2,0,0.3,0.1,0.5c0.1,0.8,0.4,1.5,0.8,2.1c0.4,0.6,0.8,1.2,1.2,1.7l0.2,0.3c-0.3,0.9-0.7,1.8-0.9,2.8
					c-0.2,0.6-0.3,1.3-0.3,2c0,0.7,0,1.5,0.4,2.3c0.3,0.8,0.8,1.5,1.4,2c0.6,0.5,1.2,0.9,2,1.2c1.5,0.6,3.1,0.4,4.3-0.2
					c0.4-0.2,0.8-0.4,1.2-0.7l1,1.3c0,0,0,0,0.1,0.1c0.1,0.1,0.1,0.2,0.2,0.2c0.1,0.1,0.1,0.2,0.2,0.3c0.1,0.2,0.2,0.4,0.3,0.5
					c0,0.2,0,0.3,0,0.3c0,0,0,0.1-0.1,0.1c0,0,0,0.1-0.1,0.1c0,0,0,0,0,0l-0.1,0l-0.1,0.1l0,0c0,0-0.1,0-0.1,0
					c-0.1,0-0.2,0.1-0.2,0.1c-0.2,0-0.3,0-0.4,0c-0.1,0-0.2-0.1-0.3-0.2c0,0-0.1-0.1-0.1-0.2c0-0.1,0-0.2-0.1-0.2l0-0.1
					c-0.1-0.4-0.5-0.6-0.9-0.6c-0.4,0.1-0.6,0.5-0.5,0.9c0,0.2,0.1,0.4,0.2,0.5c0.1,0.2,0.2,0.4,0.3,0.5c0.3,0.3,0.7,0.6,1,0.7
					c0.4,0.1,0.8,0.1,1.1,0.1c0.2,0,0.3-0.1,0.5-0.2c0.1,0,0.4-0.2,0.5-0.3l0.1-0.1c0.1-0.1,0.1-0.1,0.1-0.1
					c0.1-0.1,0.1-0.1,0.2-0.2c0.1-0.1,0.2-0.3,0.3-0.5c0.2-0.4,0.1-0.9,0-1.2c-0.1-0.4-0.3-0.7-0.5-1c-0.1-0.1-0.2-0.3-0.3-0.4
					c-0.1-0.1-0.2-0.2-0.3-0.3l-1.1-1.4C-260,402.2-259.8,401.9-259.6,401.6L-259.6,401.6z M-269.9,389.9c0-0.1,0-0.3,0-0.4
					c0-0.1,0-0.2,0-0.2c0-0.1,0.1-0.2,0.2-0.3c0.2-0.1,0.5-0.1,0.7,0.1c0.3,0.2,0.5,0.6,0.6,1c0.1,0.6,0,1.5-0.2,2.3
					c-0.3-0.3-0.5-0.7-0.7-1C-269.6,390.9-269.8,390.4-269.9,389.9z M-263.3,402.3c-0.9,0.4-2,0.5-2.9,0.1c-0.5-0.2-0.9-0.4-1.3-0.8
					c-0.3-0.3-0.6-0.7-0.8-1.1c-0.3-0.8-0.2-2,0-3.1c0.1-0.5,0.3-1.1,0.5-1.7l0.9,1c-0.3,0.4-0.5,0.8-0.6,1.3
					c-0.1,0.4-0.1,0.8-0.1,1.2c0,0.2,0.1,0.4,0.2,0.7c0,0.1,0.1,0.1,0.1,0.2l0.1,0.1l0.1,0.2l0.1,0.1c0.3,0.4,0.7,0.7,1.2,0.8
					c0.5,0.1,0.9,0.1,1.3,0.1c0,0,0.1,0,0.1,0c0.4-0.1,0.5-0.5,0.4-0.9c-0.2-0.4-0.6-0.6-1-0.5l0,0c-0.8,0.3-1.3-0.5-1-1.4
					c0.1-0.2,0.1-0.4,0.2-0.6l0.1,0.1l3.2,3.7C-262.7,402.1-263,402.2-263.3,402.3z M-261.5,401l-3.1-3.7l-0.2-0.3c0,0,0,0,0.1,0
					c0.2-0.1,0.4-0.1,0.7-0.2c0.1,0,0.2,0,0.3,0c0.3,0,0.6,0,0.9,0.1c0,0,0,0,0,0c0.3,0.1,0.6,0.2,0.8,0.3c0,0,0,0,0,0
					c0.1,0.1,0.2,0.1,0.2,0.2c0,0,0,0,0,0c0.1,0.1,0.1,0.1,0.2,0.2l0,0c0,0.1,0.1,0.1,0.1,0.2c0.1,0.1,0.1,0.2,0.2,0.2
					c0.1,0.2,0.2,0.3,0.2,0.5c0,0,0,0,0,0c0,0.1,0.1,0.2,0.1,0.3c0,0,0,0,0,0c0,0.1,0,0.2,0.1,0.3c0,0.3,0,0.4,0,0.6
					c0,0.2-0.1,0.4-0.2,0.6C-261.2,400.6-261.3,400.8-261.5,401z"/>
				<g class="st8">
					<path class="st9" d="M-238,390.5c0,0-3.8-0.2-6.2-1.1c-2.3-0.9-5.7-3.4-5.7-3.4s-0.1,0.2-0.2,0.4l-3.2-3.2c0,0-2.9,2.6-5.1,3.6
						c-2.2,1-6.4,1.6-6.4,1.6s2.8,6,4.1,7.8c0.3,0.5,0.8,0.9,1.4,1.4l14.1,14.1l12.8-15.6L-238,390.5z"/>
					<g>
						<path class="st4" d="M-244.2,389.4c-2.3-0.9-5.7-3.4-5.7-3.4s-2.2,6.2-2.6,8.4c-0.3,2.1,0.6,6.4,3.4,7.5
							c2.8,1,6.3-1.6,7.4-3.4c1.2-1.9,3.6-8,3.6-8S-241.8,390.3-244.2,389.4z M-247.1,395.2C-247.1,395.2-247,395.2-247.1,395.2
							c0.2,0.4,0.6,0.5,1,0.4c0,0,0.1,0,0.1,0c0,0,0,0.1,0,0.1c-0.2,0.1-0.4,0.1-0.6,0C-246.9,395.6-247,395.5-247.1,395.2
							C-247.2,395.2-247.1,395.2-247.1,395.2z M-249.1,389.6c0.1,0,0.3,0,0.4,0c0.1,0,0.3,0,0.5,0c0.2,0,0.3,0,0.5,0
							c0.1,0,0.3,0,0.4,0.1c0.2,0,0.4,0.1,0.4,0.1s-0.2,0-0.4,0c-0.1,0-0.3,0-0.4,0c-0.1,0-0.3,0-0.5,0c-0.2,0-0.3,0-0.5,0
							c-0.1,0-0.3,0-0.4-0.1c-0.2,0-0.4-0.1-0.4-0.1S-249.4,389.6-249.1,389.6z M-250,391.3c0.1-0.3,0.8-0.4,1.4-0.1
							c0.7,0.3,1.1,0.7,1,1.1c-0.1,0.3-0.8,0.4-1.4,0.1C-249.7,392.1-250.1,391.6-250,391.3z M-245,399.5c-0.1,0.1-0.3,0.1-0.4,0
							c-0.1,0-0.2-0.1-0.3-0.2c-0.7-1.6-2.6-2.3-4.2-1.6c-0.2,0.1-0.5,0-0.6-0.2c-0.1-0.2,0-0.5,0.2-0.6c2.1-0.9,4.5,0,5.5,2
							C-244.6,399.1-244.8,399.3-245,399.5z M-242.5,394.8c-0.7-0.3-1.1-0.7-1-1.1c0.1-0.3,0.8-0.4,1.4-0.1c0.7,0.3,1.1,0.7,1,1.1
							C-241.2,395-241.8,395.1-242.5,394.8z M-240.6,392.9c-0.1-0.1-0.2-0.1-0.4-0.2c-0.1-0.1-0.3-0.2-0.4-0.3
							c-0.1-0.1-0.3-0.2-0.4-0.3c-0.1-0.1-0.2-0.2-0.3-0.3c-0.2-0.2-0.3-0.3-0.3-0.3s0.1,0.1,0.4,0.2c0.1,0.1,0.2,0.1,0.3,0.2
							c0.1,0.1,0.3,0.2,0.4,0.3c0.1,0.1,0.3,0.2,0.4,0.3C-240.8,392.6-240.7,392.7-240.6,392.9c0.2,0.1,0.4,0.2,0.4,0.2
							S-240.4,393-240.6,392.9z"/>
					</g>
					<path class="st4" d="M-258.4,386.9c-2.2,1-6.4,1.6-6.4,1.6s2.8,6,4.1,7.8c1.3,1.8,5,4.1,7.7,2.9c2.7-1.2,3.4-5.5,2.9-7.6
						c-0.5-2.1-3.1-8.2-3.1-8.2S-256.1,385.9-258.4,386.9z M-256.4,393C-256.4,393-256.4,393-256.4,393c0.4,0.1,0.8-0.1,0.9-0.4
						c0,0,0.1-0.1,0.1,0c0,0,0.1,0.1,0,0.1c-0.1,0.2-0.2,0.4-0.4,0.4C-256,393.2-256.2,393.2-256.4,393
						C-256.4,393.1-256.4,393-256.4,393z M-261.8,390.4c0.1-0.1,0.2-0.2,0.3-0.3c0.1-0.1,0.2-0.2,0.4-0.3c0.1-0.1,0.2-0.2,0.4-0.3
						c0.1-0.1,0.2-0.2,0.3-0.2c0.2-0.1,0.3-0.2,0.3-0.2s-0.1,0.1-0.3,0.3c-0.1,0.1-0.2,0.2-0.3,0.3c-0.1,0.1-0.2,0.2-0.4,0.3
						c-0.1,0.1-0.2,0.2-0.4,0.3C-261.5,390.4-261.6,390.5-261.8,390.4c-0.1,0.2-0.3,0.3-0.3,0.3S-262,390.6-261.8,390.4z
						 M-261.2,392.3c-0.1-0.3,0.3-0.8,0.9-1.1c0.7-0.3,1.3-0.3,1.4,0.1c0.1,0.3-0.3,0.8-0.9,1.1C-260.4,392.6-261,392.6-261.2,392.3
						z M-252.4,393.5c-0.4,1.1-1.2,1.9-2.2,2.3c-1,0.4-2.1,0.5-3.2,0.1c-0.2-0.1-0.4-0.4-0.3-0.6c0.1-0.2,0.4-0.4,0.6-0.3
						c1.6,0.6,3.5-0.2,4.1-1.8c0.1-0.2,0.4-0.4,0.6-0.3C-252.4,393-252.3,393.3-252.4,393.5z M-253.4,389.5
						c-0.7,0.3-1.3,0.3-1.4-0.1c-0.1-0.3,0.3-0.8,0.9-1.1c0.7-0.3,1.3-0.3,1.5,0.1C-252.3,388.7-252.8,389.2-253.4,389.5z
						 M-253.4,386.8c-0.1,0-0.3,0.1-0.4,0.1c-0.1,0-0.3,0.1-0.5,0.1c-0.2,0-0.3,0-0.5,0.1c-0.1,0-0.3,0-0.4,0c-0.2,0-0.4,0-0.4,0
						s0.2-0.1,0.4-0.1c0.1,0,0.3-0.1,0.4-0.1c0.1,0,0.3-0.1,0.5-0.1c0.2,0,0.3,0,0.5-0.1c0.1,0,0.3,0,0.4,0c0.2,0,0.4,0,0.4,0
						S-253.2,386.8-253.4,386.8z"/>
				</g>
			</g>
		</g>
	</g>
</g>
</svg>
